# Blender 4.0.2
# www.blender.org
mtllib Boost.mtl
o Boost
v 0.200000 -0.240000 -0.560000
v 0.200000 0.560000 -0.560000
v 0.200000 -0.240000 0.560000
v 0.200000 0.560000 0.560000
v -0.200000 -0.240000 -0.560000
v -0.200000 0.560000 -0.560000
v -0.200000 -0.240000 0.560000
v -0.200000 0.560000 0.560000
v 0.200000 0.160000 0.000000
v 0.200000 0.960000 0.000000
v -0.200000 0.160000 0.000000
v -0.200000 0.960000 0.000000
v 0.200000 -1.200000 -0.560000
v 0.200000 -0.400000 -0.560000
v 0.200000 -1.200000 0.560000
v 0.200000 -0.400000 0.560000
v -0.200000 -1.200000 -0.560000
v -0.200000 -0.400000 -0.560000
v -0.200000 -1.200000 0.560000
v -0.200000 -0.400000 0.560000
v 0.200000 -0.800000 0.000000
v 0.200000 -0.000000 0.000000
v -0.200000 -0.800000 0.000000
v -0.200000 -0.000000 0.000000
vn 1.0000 -0.0000 -0.0000
vn -0.0000 -0.0000 1.0000
vn -1.0000 -0.0000 -0.0000
vn -0.0000 -0.0000 -1.0000
vn -0.0000 -0.8137 0.5812
vn -0.0000 0.8137 -0.5812
vn -0.0000 0.8137 0.5812
vn -0.0000 -0.8137 -0.5812
vt 0.190742 0.734006
vt 0.106189 0.649453
vt 0.275295 0.649453
vt 0.275295 0.480347
vt 0.444402 0.564900
vt 0.359848 0.480347
vt 0.528955 0.480347
vt 0.359848 0.818559
vt 0.528955 0.649453
vt 0.528955 0.818559
vt 0.021636 0.818559
vt 0.106189 0.987665
vt 0.021636 0.987665
vt 0.275295 0.649453
vt 0.275295 0.818559
vt 0.021636 0.480347
vt 0.106189 0.480347
vt 0.190742 0.987665
vt 0.106189 0.818559
vt 0.190742 0.818559
vt 0.359848 0.649453
vt 0.528955 0.649453
vt 0.106189 0.818559
vt 0.275295 0.818559
vt 0.573540 0.173360
vt 0.656873 0.090026
vt 0.656873 0.256693
vt 0.823540 0.256693
vt 0.573540 0.360860
vt 0.656873 0.277526
vt 0.656873 0.444193
vt 0.823540 0.090026
vt 0.990207 0.256693
vt 0.740207 0.423360
vt 0.656873 0.423360
vt 0.990207 0.006693
vt 0.823540 0.006693
vt 0.823540 0.423360
vt 0.740207 0.256693
vt 0.490207 0.277526
vt 0.490207 0.444193
vt 0.490207 0.090026
vt 0.490207 0.256693
vt 0.021636 0.734006
vt 0.275295 0.564900
vt 0.359848 0.649453
vt 0.021636 0.649453
vt 0.106189 0.987665
vt 0.573540 0.006693
vt 0.573540 0.194193
vt 0.990207 0.090026
vt 0.656873 0.006693
s 0
usemtl BoostMaterial
f 9/1/1 4/2/1 3/3/1
f 4/2/2 7/4/2 3/3/2
f 11/5/3 6/6/3 5/7/3
f 6/8/4 1/9/4 5/10/4
f 11/11/5 1/12/5 9/13/5
f 10/14/6 6/8/6 12/15/6
f 4/2/7 12/16/7 8/17/7
f 7/18/8 9/19/8 3/20/8
f 8/21/3 11/5/3 7/22/3
f 2/23/1 9/1/1 1/24/1
f 21/25/1 16/26/1 15/27/1
f 16/26/2 19/28/2 15/27/2
f 23/29/3 18/30/3 17/31/3
f 18/32/4 13/33/4 17/28/4
f 23/27/5 13/34/5 21/35/5
f 22/36/6 18/32/6 24/37/6
f 16/26/7 24/37/7 20/32/7
f 19/38/8 21/39/8 15/28/8
f 20/40/3 23/29/3 19/41/3
f 14/42/1 21/25/1 13/43/1
f 9/1/1 10/44/1 4/2/1
f 4/2/2 8/17/2 7/4/2
f 11/5/3 12/45/3 6/6/3
f 6/8/4 2/46/4 1/9/4
f 11/11/5 5/23/5 1/12/5
f 10/14/6 2/46/6 6/8/6
f 4/2/7 10/47/7 12/16/7
f 7/18/8 11/48/8 9/19/8
f 8/21/3 12/45/3 11/5/3
f 2/23/1 10/44/1 9/1/1
f 21/25/1 22/49/1 16/26/1
f 16/26/2 20/32/2 19/28/2
f 23/29/3 24/50/3 18/30/3
f 18/32/4 14/51/4 13/33/4
f 23/27/5 17/39/5 13/34/5
f 22/36/6 14/51/6 18/32/6
f 16/26/7 22/52/7 24/37/7
f 19/38/8 23/34/8 21/39/8
f 20/40/3 24/50/3 23/29/3
f 14/42/1 22/49/1 21/25/1
